<?xml version="1.0" encoding="utf-8"?>
<!-- Generator: Adobe Illustrator 28.2.0, SVG Export Plug-In . SVG Version: 6.00 Build 0)  -->
<svg version="1.1" id="Ebene_1" xmlns="http://www.w3.org/2000/svg" xmlns:xlink="http://www.w3.org/1999/xlink" x="0px" y="0px"
	 viewBox="0 0 128 128" style="enable-background:new 0 0 128 128;" xml:space="preserve">
<style type="text/css">
	.st0{fill:#010202;}
	.st1{fill:#FFFFFF;}
	.st2{fill:none;stroke:#FFFFFF;stroke-width:0.75;stroke-miterlimit:10;}
</style>
<g>
	<path class="st0" d="M113,40.6c0,32.5-24.1,58.8-53.8,58.8c-28.1,0-45.5-27.5-46.1-28.5c0-0.1-1-1.9-1.7-3.4
		c-0.3-0.6-0.6-1.2-0.6-1.2c-0.2-0.4-0.3-0.8-0.5-1.2c-0.1-0.2-0.2-0.4-0.2-0.6c-0.1-0.2-0.2-0.4-0.3-0.6c-0.2-0.6-0.5-1.1-0.7-1.7
		C9.2,62,9.1,61.8,9,61.6c-0.9-2.5-1.6-5-2.1-7.7c-0.4-1.9,0.9-3.6,2.7-3.6h51c0.9,0,1.7,0.5,2.2,1.2c3.8,6.1,9.5,9.9,15.9,9.9
		c10.2,0,18.8-10,20.6-23.2H113C113,39,113,39.8,113,40.6z"/>
	<circle class="st1" cx="42.4" cy="64.8" r="2.9"/>
	<path class="st0" d="M86.9,101.8c0.7,0.8,0.3,2.1-0.7,2.5c-5.1,2-11.1,1-15.4-3.3l-4-3.9c-1.6-1.5-1.7-4-0.3-5.7l4.9-5.9
		c1.6-1.9,4.4-2,6.1-0.3l9.8,9.6c0.7,0.7,0.7,1.8,0,2.4c-0.7,0.6-1.2,1.5-1.2,2.5C86.2,100.5,86.5,101.2,86.9,101.8z"/>
	<ellipse transform="matrix(0.7071 -0.7071 0.7071 0.7071 -33.8865 48.9089)" class="st0" cx="42.1" cy="65.4" rx="2.1" ry="2.2"/>
	<path class="st0" d="M107.3,40.6c-3.9,4.5-16-0.7-16.6-13c0-0.8,0.6-1.5,1.4-1.6C104.3,24.9,111.1,36.2,107.3,40.6z"/>
	<path class="st0" d="M106.7,40.3c-4.4-3.8,0.7-15.8,12.8-16.4c0.8,0,1.5,0.6,1.6,1.4C122.2,37.4,111.1,44.1,106.7,40.3z"/>
	<path d="M118.3,12.1"/>
	<path class="st1" d="M62.2,95.1c-1.5,3.4-12.5,2.2-21.2-1.7S21.2,81,22.7,77.6s11.1,4.9,19.7,8.8S63.7,91.8,62.2,95.1z"/>
	<path class="st0" d="M72.1,59.7l3.2-10.5c0.3-0.9-0.7-1.7-1.5-1.2l-9.5,5.6c-0.6,0.4-0.7,1.3-0.1,1.7l6.3,5
		C71.1,60.7,71.9,60.4,72.1,59.7z"/>
	<path class="st1" d="M106.8,48.1c3.2,1.8,1,12.7-3.7,20.9c-4.7,8.3-14.3,18.6-17.5,16.7s5.9-10.6,10.6-18.8
		C101,58.7,103.6,46.3,106.8,48.1z"/>
	<path class="st1" d="M74.5,65.7c-2.7,3.9-9,5-12.4,2.7c-3.4-2.3-5.9-9.1-3.1-13.1s4.4,2.9,7.7,5.2C70.1,62.9,77.2,61.8,74.5,65.7z"
		/>
	<path class="st2" d="M12.7,70.4L12.7,70.4c3.3,0.5,7.1,1,11.3,1.1c6.3,0.2,12-0.3,16.6-1"/>
	<path class="st1" d="M34.4,71.4l2.1,3.5c0.2,0.4,0.8,0.3,0.9-0.1l1.2-3.9L34.4,71.4z"/>
</g>
</svg>
