<?xml version="1.0" encoding="utf-8"?>
<!-- Generator: Adobe Illustrator 27.9.0, SVG Export Plug-In . SVG Version: 6.00 Build 0)  -->
<svg version="1.1" id="Ebene_1" xmlns="http://www.w3.org/2000/svg" xmlns:xlink="http://www.w3.org/1999/xlink" x="0px" y="0px"
	 viewBox="0 0 128 128" style="enable-background:new 0 0 128 128;" xml:space="preserve">
<style type="text/css">
	.st0{fill:#010202;}
	.st1{fill:#FFFFFF;}
	.st2{fill:none;stroke:#FFFFFF;stroke-width:0.75;stroke-miterlimit:10;}
</style>
<path class="st0" d="M118.21,53.48c0,35.26-26.15,63.85-58.39,63.85c-30.53,0-49.45-29.9-50.02-30.94
	c-0.05-0.09-1.09-2.02-1.87-3.66c-0.32-0.68-0.62-1.34-0.62-1.34c-0.19-0.42-0.38-0.85-0.56-1.28c-0.09-0.21-0.18-0.42-0.27-0.64
	c-0.1-0.23-0.2-0.47-0.28-0.7c-0.25-0.61-0.49-1.23-0.71-1.85c-0.09-0.23-0.17-0.48-0.25-0.71c-0.95-2.68-1.73-5.46-2.33-8.32
	c-0.42-2.02,1.02-3.93,2.92-3.93h55.44c0.96,0,1.9,0.49,2.44,1.35c4.17,6.59,10.35,10.76,17.22,10.76
	c11.13,0,20.39-10.87,22.38-25.23h14.83C118.2,51.71,118.21,52.59,118.21,53.48z"/>
<circle class="st1" cx="41.54" cy="79.7" r="3.12"/>
<path class="st0" d="M89.86,119.9c0.72,0.9,0.29,2.28-0.78,2.69c-5.58,2.17-12.06,1.04-16.77-3.56l-4.37-4.25
	c-1.69-1.66-1.84-4.33-0.32-6.16l5.32-6.42c1.69-2.05,4.78-2.21,6.67-0.36l10.69,10.43c0.74,0.72,0.79,1.96,0.01,2.63
	c-0.76,0.66-1.25,1.63-1.25,2.72C89.06,118.5,89.36,119.28,89.86,119.9z"/>
<ellipse transform="matrix(0.7071 -0.7071 0.7071 0.7071 -44.7493 52.634)" class="st0" cx="41.16" cy="80.33" rx="2.29" ry="2.39"/>
<path class="st0" d="M111.93,53.48c-4.21,4.86-17.35-0.79-18.05-14.13c-0.05-0.89,0.61-1.65,1.5-1.73
	C108.67,36.42,116.14,48.62,111.93,53.48z"/>
<path class="st0" d="M111.33,53.11c-4.79-4.15,0.78-17.11,13.92-17.81c0.89-0.05,1.65,0.61,1.73,1.5
	C128.15,49.91,116.12,57.27,111.33,53.11z"/>
<path d="M122.78,10.47"/>
<path class="st1" d="M63,112.66c-1.65,3.66-13.61,2.37-23.03-1.87S18.44,97.28,20.09,93.62c1.65-3.66,12.03,5.32,21.45,9.55
	S64.65,109,63,112.66z"/>
<path class="st0" d="M73.79,74.22l3.46-11.44c0.3-0.98-0.77-1.82-1.65-1.3l-10.31,6.05c-0.68,0.4-0.75,1.37-0.13,1.86l6.85,5.39
	C72.64,75.27,73.56,74.98,73.79,74.22z"/>
<path class="st1" d="M111.47,61.59c3.49,1.99,1.06,13.77-4.05,22.74c-5.12,8.97-15.5,20.15-18.99,18.16
	c-3.49-1.99,6.44-11.47,11.55-20.44C105.09,73.07,107.98,59.6,111.47,61.59z"/>
<path class="st1" d="M76.35,80.74c-2.96,4.29-9.77,5.47-13.44,2.93c-3.67-2.53-6.37-9.91-3.4-14.2s4.73,3.13,8.4,5.67
	C71.57,77.68,79.31,76.45,76.35,80.74z"/>
<path class="st2" d="M9.18,85.81L9.18,85.81c3.61,0.59,7.7,1.04,12.23,1.19c6.86,0.23,12.98-0.29,18.08-1.06"/>
<path class="st1" d="M32.76,86.89l2.23,3.79c0.25,0.43,0.89,0.35,1.03-0.12l1.27-4.21L32.76,86.89z"/>
</svg>
