<?xml version="1.0" encoding="utf-8"?>
<!-- Generator: Adobe Illustrator 27.9.0, SVG Export Plug-In . SVG Version: 6.00 Build 0)  -->
<svg version="1.1" id="Ebene_1" xmlns="http://www.w3.org/2000/svg" xmlns:xlink="http://www.w3.org/1999/xlink" x="0px" y="0px"
	 viewBox="0 0 128 128" style="enable-background:new 0 0 128 128;" xml:space="preserve">
<style type="text/css">
	.st0{fill:#FEFDFD;}
	.st1{fill:#FFFFFF;}
	.st2{fill:none;stroke:#000000;stroke-width:0.75;stroke-miterlimit:10;}
</style>
<path class="st0" d="M83.55,42.71c0,14.98-11.18,27.13-24.96,27.13c-13.05,0-21.14-12.71-21.38-13.15c-0.02-0.04-0.47-0.86-0.8-1.56
	c-0.14-0.29-0.27-0.57-0.27-0.57c-0.08-0.18-0.16-0.36-0.24-0.54c-0.04-0.09-0.08-0.18-0.12-0.27c-0.04-0.1-0.09-0.2-0.12-0.3
	c-0.11-0.26-0.21-0.52-0.3-0.79c-0.04-0.1-0.07-0.2-0.11-0.3c-0.41-1.14-0.74-2.32-1-3.54c-0.18-0.86,0.44-1.67,1.25-1.67h23.7
	c0.41,0,0.81,0.21,1.04,0.57c1.78,2.8,4.42,4.57,7.36,4.57c4.76,0,8.72-4.62,9.57-10.72h6.34C83.54,41.96,83.55,42.33,83.55,42.71z"
	/>
<ellipse cx="50.77" cy="53.85" rx="1.33" ry="1.33"/>
<path class="st0" d="M71.43,70.94c0.31,0.38,0.12,0.97-0.33,1.14c-2.39,0.92-5.15,0.44-7.17-1.51l-1.87-1.81
	c-0.72-0.71-0.79-1.84-0.14-2.62l2.27-2.73c0.72-0.87,2.04-0.94,2.85-0.15l4.57,4.43c0.32,0.31,0.34,0.83,0,1.12
	c-0.32,0.28-0.53,0.69-0.53,1.16C71.09,70.34,71.21,70.67,71.43,70.94z"/>
<ellipse transform="matrix(0.6568 -0.754 0.754 0.6568 -23.5477 56.6303)" class="st0" cx="50.44" cy="54.19" rx="0.98" ry="1.02"/>
<path class="st0" d="M80.86,42.71c-1.8,2.07-7.42-0.34-7.72-6c-0.02-0.38,0.26-0.7,0.64-0.74C79.47,35.46,82.66,40.65,80.86,42.71z"
	/>
<path class="st0" d="M80.61,42.56c-2.05-1.76,0.33-7.27,5.95-7.57c0.38-0.02,0.71,0.26,0.74,0.64C87.8,41.2,82.65,44.32,80.61,42.56
	z"/>
<path class="st1" d="M85.59,36.6"/>
<path d="M59.95,67.86c-0.71,1.56-5.82,1.01-9.84-0.79c-4.03-1.8-9.2-5.74-8.5-7.3c0.71-1.56,5.14,2.26,9.17,4.06
	S60.65,66.3,59.95,67.86z"/>
<path class="st0" d="M64.56,51.53l1.48-4.86c0.13-0.42-0.33-0.77-0.71-0.55l-4.41,2.57c-0.29,0.17-0.32,0.58-0.06,0.79l2.93,2.29
	C64.07,51.97,64.46,51.85,64.56,51.53z"/>
<path d="M80.67,46.16c1.49,0.85,0.45,5.85-1.73,9.66c-2.19,3.81-6.63,8.56-8.12,7.72c-1.49-0.85,2.75-4.87,4.94-8.69
	C77.94,51.04,79.17,45.31,80.67,46.16z"/>
<path d="M65.65,54.3c-1.27,1.82-4.18,2.32-5.74,1.25c-1.57-1.08-2.72-4.21-1.45-6.03c1.27-1.82,2.02,1.33,3.59,2.41
	C63.61,53,66.92,52.47,65.65,54.3z"/>
<path class="st2" d="M36.94,56.45L36.94,56.45c1.54,0.25,3.29,0.44,5.23,0.51c2.93,0.1,5.55-0.12,7.73-0.45"/>
<path d="M47.02,56.91l0.95,1.61c0.11,0.18,0.38,0.15,0.44-0.05l0.54-1.79L47.02,56.91z"/>
<g>
	<path class="st1" d="M30.95,74.72h3.8l2.98,4.33l0.03-0.01v-4.31h3.75v10.14h-3.8l-2.98-4.33l-0.03,0.01v4.31h-3.75V74.72z"/>
	<path class="st1" d="M42.74,74.72h7.3v3.39h-3.12v0.55h2.52v2.41h-2.52v0.57h3.32v3.22h-7.49V74.72z"/>
	<path class="st1" d="M51.26,74.72h3.84c2.44,0,5.17,0.7,5.17,3.6c0,2.61-2.19,3.66-4.69,3.66h-0.14v2.89h-4.17V74.72z M55.55,79.4
		c0.71,0,1.05-0.38,1.05-0.85c0-0.48-0.35-0.85-1.05-0.85h-0.11v1.71H55.55z"/>
	<path class="st1" d="M63.85,78.17h-2.83v-3.45h9.83v3.45h-2.83v6.7h-4.17V78.17z"/>
	<path class="st1" d="M71.93,80.25v-5.53h4.17v5.25c0,0.95,0.31,1.62,1.28,1.62c0.92,0,1.25-0.59,1.25-1.61v-5.27h3.75v5.48
		c0,1.55-0.39,2.54-0.92,3.18c-0.92,1.12-2.61,1.64-4.33,1.64c-1.78,0-3.35-0.56-4.25-1.61C72.37,82.82,71.93,81.91,71.93,80.25z"/>
	<path class="st1" d="M83.59,74.72h3.8l2.98,4.33l0.03-0.01v-4.31h3.75v10.14h-3.8l-2.98-4.33l-0.03,0.01v4.31h-3.75V74.72z"/>
</g>
</svg>
